<svg xmlns="http://www.w3.org/2000/svg" xmlns:xlink="http://www.w3.org/1999/xlink" zoomAndPan="magnify" preserveAspectRatio="xMidYMid meet" version="1.0" viewBox="15.71 142 351.55 91.28"><defs><g/><clipPath id="e8d73b78ee"><path d="M 303 142 L 367.261719 142 L 367.261719 233.128906 L 303 233.128906 Z M 303 142 " clip-rule="nonzero"/></clipPath></defs><path stroke-linecap="round" transform="matrix(0.75, 0, 0, 0.75, 16.084145, 150.843741)" fill="none" stroke-linejoin="miter" d="M 1.50239 1.500012 L 366.163872 1.500012 " stroke="#000000" stroke-width="3" stroke-opacity="1" stroke-miterlimit="4"/><path stroke-linecap="round" transform="matrix(0.75, 0, 0, 0.75, 16.084145, 221.906237)" fill="none" stroke-linejoin="miter" d="M 1.50239 1.500018 L 366.163872 1.500018 " stroke="#000000" stroke-width="3" stroke-opacity="1" stroke-miterlimit="4"/><g clip-path="url(#e8d73b78ee)"><path fill="#2b3336" d="M 309.339844 153.328125 C 309.34375 153.28125 309.347656 153.246094 309.351562 153.207031 C 309.351562 153.199219 309.351562 153.199219 309.351562 153.199219 C 309.402344 152.886719 309.476562 152.597656 309.585938 152.347656 C 309.878906 151.679688 310.5625 150.960938 311.015625 150.480469 C 312.046875 149.386719 313.328125 148.445312 314.820312 147.679688 C 317.335938 146.382812 320.125 145.722656 322.753906 145.207031 C 327.613281 144.242188 332.078125 143.761719 336.242188 143.761719 C 338.472656 143.761719 340.613281 143.898438 342.6875 144.167969 C 347.359375 144.78125 351.675781 146.105469 355.519531 148.101562 C 355.726562 148.207031 355.949219 148.320312 356.183594 148.433594 C 357.449219 149.078125 358.976562 149.855469 359.929688 150.796875 C 360.847656 152.328125 360.472656 154.457031 359.5625 155.824219 C 358.597656 157.269531 357.003906 158.425781 354.542969 159.476562 C 348.222656 162.167969 341.164062 162.554688 334.476562 162.578125 C 330.816406 162.589844 326.894531 162.5 323.078125 161.78125 C 318.957031 161.007812 315.472656 159.582031 312.699219 157.542969 C 311.59375 156.738281 309.90625 155.234375 309.339844 153.328125 Z M 309.34375 162.539062 C 309.023438 160.21875 308.957031 157.820312 309.125 155.460938 C 309.980469 156.78125 311.167969 157.808594 312.035156 158.445312 C 314.949219 160.578125 318.59375 162.074219 322.871094 162.875 C 326.585938 163.578125 330.355469 163.691406 333.917969 163.691406 C 334.105469 163.691406 334.292969 163.691406 334.484375 163.691406 C 341.289062 163.671875 348.476562 163.269531 354.980469 160.5 C 356.660156 159.785156 359.058594 158.589844 360.484375 156.445312 C 360.613281 156.25 360.730469 156.042969 360.839844 155.828125 L 361.113281 161.691406 C 361.238281 164.265625 357.484375 165.910156 354.746094 167.109375 L 354.480469 167.226562 C 349.1875 169.550781 343.191406 170.800781 336.664062 170.953125 C 331.023438 171.085938 325.042969 170.40625 318.386719 168.882812 C 316.695312 168.488281 314.953125 167.625 313.367188 166.386719 C 311.910156 165.25 310.601562 163.882812 309.34375 162.539062 Z M 307.457031 173.539062 C 307.441406 173.425781 307.421875 173.316406 307.398438 173.203125 C 308.238281 173.691406 309.097656 174.117188 309.878906 174.5 L 310.203125 174.660156 C 314.414062 176.734375 319.300781 178.0625 324.726562 178.621094 C 326.820312 178.832031 329.023438 178.9375 331.433594 178.9375 C 333.625 178.9375 335.984375 178.851562 338.585938 178.679688 L 340.167969 178.570312 C 343.695312 178.335938 347.339844 178.097656 350.867188 177.417969 C 353.527344 176.90625 356.136719 176.085938 358.628906 174.980469 C 359.828125 174.453125 360.992188 173.851562 362.117188 173.199219 L 358.65625 193.605469 C 357.78125 198.78125 356.875 204.125 356.246094 209.441406 C 355.757812 213.476562 355.183594 217.722656 353.910156 221.46875 C 353.476562 222.730469 353.417969 224.164062 353.386719 225.445312 C 351.4375 227.742188 348.699219 229.480469 345.652344 230.363281 C 342.386719 231.3125 338.871094 231.511719 335.867188 231.582031 C 332.429688 231.660156 328.394531 231.613281 324.488281 230.660156 C 320.625 229.71875 317.382812 227.96875 315.082031 225.589844 C 315.132812 224.414062 315.152344 222.542969 314.949219 221.050781 C 314.382812 216.980469 313.703125 212.875 313.046875 208.894531 C 312.789062 207.347656 312.535156 205.796875 312.292969 204.25 C 311.746094 200.863281 311.351562 198.269531 311.019531 195.824219 C 310.921875 195.105469 310.863281 194.34375 310.796875 193.542969 C 310.652344 191.675781 310.5 189.753906 309.839844 188.050781 C 309.101562 186.167969 308.863281 184.351562 308.589844 182.238281 Z M 306.714844 164.804688 C 305.347656 162.785156 305.394531 160.210938 305.703125 158.316406 C 306.074219 157.90625 306.804688 157.496094 307.371094 157.199219 C 307.332031 159.15625 307.445312 161.125 307.71875 163.039062 C 307.75 163.210938 307.820312 163.363281 307.9375 163.492188 C 309.300781 164.941406 310.710938 166.4375 312.335938 167.707031 C 314.117188 169.097656 316.078125 170.066406 318.003906 170.507812 C 324.253906 171.941406 329.921875 172.644531 335.289062 172.644531 C 335.761719 172.644531 336.234375 172.636719 336.699219 172.625 C 343.453125 172.46875 349.660156 171.164062 355.160156 168.75 L 355.414062 168.640625 C 358.601562 167.25 362.960938 165.335938 362.785156 161.617188 L 362.597656 157.601562 C 364.113281 158.6875 364.859375 160.886719 364.371094 162.945312 C 363.914062 164.855469 362.53125 166.628906 360.476562 167.929688 C 358.550781 169.15625 356.335938 169.824219 354.226562 170.402344 C 345.644531 172.757812 338.046875 173.746094 330.988281 173.425781 C 326.847656 173.238281 323.46875 172.765625 320.664062 171.972656 C 317.300781 171.03125 314.027344 169.726562 310.933594 168.105469 C 309.332031 167.257812 307.710938 166.277344 306.714844 164.804688 Z M 304.789062 163.4375 C 304.796875 163.394531 304.800781 163.34375 304.800781 163.296875 C 305.019531 164.035156 305.335938 164.757812 305.792969 165.433594 C 306.925781 167.109375 308.683594 168.179688 310.417969 169.09375 C 313.578125 170.753906 316.917969 172.085938 320.367188 173.050781 C 323.25 173.855469 326.710938 174.347656 330.941406 174.535156 C 331.820312 174.582031 332.710938 174.597656 333.605469 174.597656 C 340.015625 174.597656 346.894531 173.570312 354.523438 171.46875 C 356.609375 170.898438 359.015625 170.179688 361.074219 168.871094 C 363.222656 167.511719 364.703125 165.667969 365.324219 163.636719 C 365.289062 165.460938 364.320312 167.386719 362.644531 168.808594 C 360.71875 170.445312 358.242188 171.285156 355.878906 172 C 341.511719 176.355469 328.601562 176.960938 317.507812 173.808594 C 315.050781 173.109375 311.566406 171.828125 308.894531 169.6875 C 306.710938 167.945312 305.273438 165.726562 304.789062 163.4375 Z M 305.578125 169.703125 C 304.734375 168.703125 304.652344 167.203125 304.6875 165.746094 C 305.464844 167.4375 306.722656 169.023438 308.375 170.339844 C 311.15625 172.570312 314.746094 173.890625 317.277344 174.609375 C 322.007812 175.953125 327.0625 176.625 332.410156 176.625 C 339.78125 176.625 347.703125 175.351562 356.117188 172.804688 C 358.574219 172.0625 361.144531 171.1875 363.1875 169.441406 C 364.238281 168.550781 365.039062 167.464844 365.546875 166.324219 C 365.539062 166.640625 365.535156 166.964844 365.535156 167.289062 C 365.523438 168.710938 364.625 169.605469 363.171875 170.578125 C 361.53125 171.683594 359.777344 172.648438 357.957031 173.457031 C 355.582031 174.507812 353.089844 175.289062 350.550781 175.78125 C 347.125 176.4375 343.535156 176.675781 340.058594 176.898438 L 338.472656 177.007812 C 333.117188 177.371094 328.808594 177.355469 324.902344 176.957031 C 319.667969 176.425781 314.976562 175.140625 310.933594 173.160156 L 310.613281 173 C 308.886719 172.148438 306.742188 171.097656 305.578125 169.703125 Z M 303.050781 164.714844 C 302.960938 166.648438 302.851562 169.054688 304.292969 170.78125 C 304.640625 171.195312 305.046875 171.578125 305.488281 171.925781 C 305.464844 172.035156 305.457031 172.140625 305.46875 172.246094 C 305.515625 172.53125 305.582031 172.804688 305.648438 173.070312 C 305.714844 173.316406 305.769531 173.550781 305.800781 173.75 L 306.9375 182.453125 C 307.210938 184.578125 307.472656 186.582031 308.277344 188.65625 C 308.855469 190.132812 308.996094 191.933594 309.128906 193.671875 C 309.191406 194.464844 309.257812 195.285156 309.363281 196.050781 C 309.699219 198.507812 310.089844 201.117188 310.636719 204.507812 C 310.882812 206.066406 311.144531 207.621094 311.398438 209.167969 C 312.050781 213.136719 312.730469 217.230469 313.292969 221.277344 C 313.503906 222.796875 313.449219 224.804688 313.398438 225.867188 C 313.386719 226.089844 313.46875 226.308594 313.617188 226.476562 C 316.152344 229.222656 319.78125 231.226562 324.089844 232.289062 C 327.390625 233.089844 330.746094 233.28125 333.777344 233.28125 C 334.507812 233.28125 335.214844 233.269531 335.90625 233.25 C 339.019531 233.179688 342.671875 232.972656 346.121094 231.96875 C 349.582031 230.96875 352.683594 228.941406 354.863281 226.285156 C 354.980469 226.144531 355.046875 225.96875 355.050781 225.777344 L 355.050781 225.695312 C 355.085938 224.480469 355.121094 223.097656 355.492188 222.003906 C 356.816406 218.109375 357.410156 213.757812 357.898438 209.636719 C 358.527344 204.363281 359.429688 199.039062 360.304688 193.882812 L 364.011719 172.027344 C 364.039062 172.007812 364.074219 171.988281 364.101562 171.972656 C 365.707031 170.890625 367.191406 169.582031 367.203125 167.296875 C 367.203125 166.941406 367.210938 166.585938 367.214844 166.234375 C 367.238281 164.546875 367.265625 162.796875 366.84375 161.03125 C 366.289062 158.71875 364.828125 156.683594 362.886719 155.492188 C 362.921875 153.941406 362.863281 151.863281 361.683594 150.277344 C 360.585938 148.796875 358.5625 147.773438 356.933594 146.949219 C 356.710938 146.832031 356.496094 146.726562 356.289062 146.613281 C 352.269531 144.527344 347.769531 143.148438 342.90625 142.511719 C 336.761719 141.707031 330.074219 142.050781 322.433594 143.5625 C 319.679688 144.105469 316.757812 144.800781 314.058594 146.191406 C 312.390625 147.050781 310.957031 148.101562 309.796875 149.332031 C 309.449219 149.707031 309.089844 150.089844 308.78125 150.5 C 308.761719 150.519531 308.734375 150.53125 308.71875 150.554688 C 308.695312 150.570312 308.671875 150.582031 308.65625 150.59375 C 308.449219 150.710938 308.03125 150.957031 307.933594 151.507812 C 307.832031 152.058594 307.75 152.613281 307.675781 153.171875 C 307.648438 153.351562 307.632812 153.527344 307.617188 153.703125 C 307.570312 154.050781 307.535156 154.40625 307.503906 154.753906 C 307.457031 155.078125 307.230469 155.378906 306.914062 155.550781 L 306.742188 155.644531 C 305.941406 156.058594 304.851562 156.632812 304.269531 157.429688 C 303.722656 158.167969 303.585938 159.273438 303.476562 160.160156 C 303.453125 160.351562 303.429688 160.527344 303.402344 160.6875 C 303.234375 161.753906 303.128906 162.902344 303.074219 164.296875 L 303.050781 164.714844 " fill-opacity="1" fill-rule="nonzero"/></g><path fill="#2b3336" d="M 315.261719 153.222656 C 315.285156 153.230469 315.308594 153.238281 315.335938 153.238281 C 320.242188 153.109375 324.398438 153.554688 328.035156 154.589844 C 332.214844 155.777344 335.804688 157.824219 338.480469 160.492188 C 336.453125 160.667969 334.476562 160.707031 332.570312 160.605469 C 327.375 160.328125 322.457031 159 318.339844 156.777344 C 317.273438 156.199219 316.105469 155.453125 315.5625 154.335938 C 315.386719 153.992188 315.292969 153.613281 315.261719 153.222656 Z M 315.316406 152.402344 C 315.304688 152.402344 315.296875 152.40625 315.285156 152.40625 C 315.367188 151.910156 315.550781 151.425781 315.84375 151.019531 C 316.675781 149.867188 318.179688 149.367188 319.515625 148.980469 C 324.582031 147.539062 329.871094 146.851562 335.226562 146.941406 C 340.601562 147.03125 345.898438 147.902344 350.957031 149.523438 C 352.042969 149.875 353.058594 150.710938 353.949219 151.445312 C 354.359375 151.785156 354.5625 152.265625 354.5625 152.910156 C 354.5625 153.121094 354.539062 153.34375 354.5 153.589844 C 354.265625 154.972656 353.296875 156.304688 351.847656 157.246094 C 350.441406 158.152344 348.78125 158.621094 347.339844 158.992188 C 344.671875 159.664062 342.066406 160.132812 339.550781 160.398438 C 339.53125 160.378906 339.527344 160.355469 339.507812 160.332031 C 336.699219 157.347656 332.804688 155.085938 328.265625 153.785156 C 324.546875 152.726562 320.308594 152.269531 315.316406 152.402344 Z M 315.164062 150.53125 C 314.3125 151.71875 314.167969 153.390625 314.808594 154.703125 C 315.457031 156.03125 316.757812 156.867188 317.945312 157.511719 C 322.171875 159.796875 327.207031 161.15625 332.523438 161.441406 C 333.257812 161.480469 334 161.496094 334.746094 161.496094 C 338.789062 161.496094 343.082031 160.929688 347.539062 159.796875 C 349.054688 159.414062 350.796875 158.921875 352.304688 157.949219 C 353.949219 156.878906 355.046875 155.339844 355.320312 153.730469 C 355.542969 152.425781 355.261719 151.445312 354.5 150.816406 C 353.527344 150.015625 352.449219 149.128906 351.214844 148.730469 C 346.074219 147.082031 340.703125 146.195312 335.238281 146.105469 C 329.800781 146.011719 324.433594 146.714844 319.289062 148.179688 C 317.707031 148.632812 316.113281 149.226562 315.164062 150.53125 " fill-opacity="1" fill-rule="nonzero"/><path fill="#2b3336" d="M 317.003906 158.769531 C 316.988281 158.769531 316.964844 158.765625 316.949219 158.765625 C 316.964844 158.738281 316.992188 158.695312 317.054688 158.632812 C 317.171875 158.648438 317.398438 158.707031 317.851562 158.84375 L 318.003906 158.894531 C 318.386719 159 318.785156 159.140625 319.238281 159.316406 C 319.277344 159.335938 319.332031 159.359375 319.394531 159.378906 C 319.484375 159.40625 319.695312 159.488281 319.839844 159.5625 C 319.71875 159.597656 319.546875 159.621094 319.40625 159.601562 C 319.066406 159.574219 318.722656 159.417969 318.371094 159.246094 L 318.285156 159.207031 C 317.953125 159.042969 317.609375 158.871094 317.210938 158.796875 C 317.144531 158.785156 317.070312 158.777344 317.003906 158.769531 Z M 316.582031 157.925781 C 316.15625 158.316406 316.011719 158.699219 316.148438 159.074219 C 316.320312 159.558594 316.738281 159.589844 316.9375 159.601562 C 316.976562 159.609375 317.015625 159.609375 317.054688 159.621094 C 317.34375 159.675781 317.621094 159.808594 317.917969 159.953125 L 318.003906 159.996094 C 318.429688 160.207031 318.855469 160.398438 319.332031 160.441406 C 319.339844 160.441406 319.390625 160.445312 319.464844 160.445312 C 319.75 160.445312 320.402344 160.394531 320.675781 159.972656 C 320.75 159.863281 320.78125 159.742188 320.789062 159.613281 C 320.8125 158.992188 320.070312 158.734375 319.675781 158.589844 L 319.550781 158.542969 C 319.070312 158.355469 318.644531 158.203125 318.226562 158.089844 L 318.101562 158.050781 C 317.191406 157.765625 316.828125 157.703125 316.582031 157.925781 " fill-opacity="1" fill-rule="nonzero"/><g fill="#000000" fill-opacity="1"><g transform="translate(19.763996, 189.445783)"><g><path d="M 20.109375 -2.84375 C 17.921875 -1.019531 15.421875 -0.109375 12.609375 -0.109375 C 9.421875 -0.109375 6.695312 -1.238281 4.4375 -3.5 C 2.164062 -5.757812 1.03125 -8.484375 1.03125 -11.671875 C 1.03125 -14.878906 2.164062 -17.613281 4.4375 -19.875 C 6.695312 -22.132812 9.421875 -23.265625 12.609375 -23.265625 C 15.441406 -23.265625 17.941406 -22.34375 20.109375 -20.5 L 16.65625 -17.0625 C 15.476562 -17.96875 14.128906 -18.421875 12.609375 -18.421875 C 10.753906 -18.421875 9.171875 -17.765625 7.859375 -16.453125 C 6.546875 -15.128906 5.890625 -13.535156 5.890625 -11.671875 C 5.890625 -9.828125 6.546875 -8.242188 7.859375 -6.921875 C 9.171875 -5.609375 10.753906 -4.953125 12.609375 -4.953125 C 14.128906 -4.953125 15.476562 -5.398438 16.65625 -6.296875 Z M 20.109375 -2.84375 "/></g></g></g><g fill="#000000" fill-opacity="1"><g transform="translate(45.415603, 189.445783)"><g><path d="M 12.125 -22.40625 C 15.332031 -22.40625 18.066406 -21.273438 20.328125 -19.015625 C 22.585938 -16.742188 23.71875 -14.003906 23.71875 -10.796875 C 23.71875 -7.585938 22.585938 -4.851562 20.328125 -2.59375 C 18.066406 -0.332031 15.332031 0.796875 12.125 0.796875 C 8.914062 0.796875 6.175781 -0.332031 3.90625 -2.59375 C 1.644531 -4.851562 0.515625 -7.585938 0.515625 -10.796875 C 0.515625 -14.003906 1.644531 -16.742188 3.90625 -19.015625 C 6.175781 -21.273438 8.914062 -22.40625 12.125 -22.40625 Z M 16.890625 -6.03125 C 18.210938 -7.34375 18.875 -8.929688 18.875 -10.796875 C 18.875 -12.671875 18.210938 -14.265625 16.890625 -15.578125 C 15.578125 -16.898438 13.988281 -17.5625 12.125 -17.5625 C 10.25 -17.5625 8.65625 -16.898438 7.34375 -15.578125 C 6.019531 -14.265625 5.359375 -12.671875 5.359375 -10.796875 C 5.359375 -8.929688 6.019531 -7.34375 7.34375 -6.03125 C 8.707031 -4.707031 10.300781 -4.046875 12.125 -4.046875 C 13.945312 -4.046875 15.535156 -4.707031 16.890625 -6.03125 Z M 16.890625 -6.03125 "/></g></g></g><g fill="#000000" fill-opacity="1"><g transform="translate(73.109613, 189.445783)"><g><path d="M 14.953125 -17.65625 L 6.4375 -17.65625 L 6.4375 -13.671875 L 12.78125 -13.671875 L 12.78125 -8.828125 L 6.4375 -8.828125 L 6.4375 0 L 1.03125 0 L 1.03125 -22.5 L 14.953125 -22.5 Z M 14.953125 -17.65625 "/></g></g></g><g fill="#000000" fill-opacity="1"><g transform="translate(92.564745, 189.445783)"><g><path d="M 14.953125 -17.65625 L 6.4375 -17.65625 L 6.4375 -13.671875 L 12.78125 -13.671875 L 12.78125 -8.828125 L 6.4375 -8.828125 L 6.4375 0 L 1.03125 0 L 1.03125 -22.5 L 14.953125 -22.5 Z M 14.953125 -17.65625 "/></g></g></g><g fill="#000000" fill-opacity="1"><g transform="translate(112.019884, 189.445783)"><g><path d="M 6.4375 -8.828125 L 6.4375 -4.84375 L 16.765625 -4.84375 L 16.765625 0 L 1.03125 0 L 1.03125 -22.5 L 16.765625 -22.5 L 16.765625 -17.65625 L 6.4375 -17.65625 L 6.4375 -13.671875 L 15.203125 -13.671875 L 15.203125 -8.828125 Z M 6.4375 -8.828125 "/></g></g></g><g fill="#000000" fill-opacity="1"><g transform="translate(133.27512, 189.445783)"><g><path d="M 6.4375 -8.828125 L 6.4375 -4.84375 L 16.765625 -4.84375 L 16.765625 0 L 1.03125 0 L 1.03125 -22.5 L 16.765625 -22.5 L 16.765625 -17.65625 L 6.4375 -17.65625 L 6.4375 -13.671875 L 15.203125 -13.671875 L 15.203125 -8.828125 Z M 6.4375 -8.828125 "/></g></g></g><g fill="#000000" fill-opacity="1"><g transform="translate(154.530356, 189.445783)"><g/></g></g><g fill="#000000" fill-opacity="1"><g transform="translate(166.992846, 189.445783)"><g><path d="M 19.84375 -14.8125 C 19.84375 -13.363281 19.472656 -12.015625 18.734375 -10.765625 C 17.828125 -9.285156 16.554688 -8.257812 14.921875 -7.6875 L 19.765625 0 L 13.71875 0 L 9 -7.171875 L 6.4375 -7.171875 L 6.4375 0 L 1.03125 0 L 1.03125 -22.5 L 11.8125 -22.5 C 14.375 -22.5 16.40625 -21.660156 17.90625 -19.984375 C 19.195312 -18.503906 19.84375 -16.78125 19.84375 -14.8125 Z M 6.4375 -17.65625 L 6.4375 -12.015625 L 11.765625 -12.015625 C 12.503906 -12.015625 13.09375 -12.117188 13.53125 -12.328125 C 13.90625 -12.535156 14.171875 -12.734375 14.328125 -12.921875 C 14.566406 -13.191406 14.742188 -13.515625 14.859375 -13.890625 C 14.953125 -14.210938 15 -14.519531 15 -14.8125 C 15 -15.132812 14.953125 -15.457031 14.859375 -15.78125 C 14.710938 -16.15625 14.515625 -16.484375 14.265625 -16.765625 C 13.753906 -17.359375 12.9375 -17.65625 11.8125 -17.65625 Z M 6.4375 -17.65625 "/></g></g></g><g fill="#000000" fill-opacity="1"><g transform="translate(191.329003, 189.445783)"><g><path d="M 6.4375 -8.828125 L 6.4375 -4.84375 L 16.765625 -4.84375 L 16.765625 0 L 1.03125 0 L 1.03125 -22.5 L 16.765625 -22.5 L 16.765625 -17.65625 L 6.4375 -17.65625 L 6.4375 -13.671875 L 15.203125 -13.671875 L 15.203125 -8.828125 Z M 6.4375 -8.828125 "/></g></g></g><g fill="#000000" fill-opacity="1"><g transform="translate(212.584228, 189.445783)"><g><path d="M 18.3125 0 L 16.6875 -3.15625 L 8.203125 -3.15625 L 6.578125 0 L 0.34375 0 L 12.46875 -22.5 L 24.546875 0 Z M 14.515625 -7.375 L 12.46875 -11.328125 L 10.390625 -7.375 Z M 14.515625 -7.375 "/></g></g></g><g fill="#000000" fill-opacity="1"><g transform="translate(240.935957, 189.445783)"><g><path d="M 6.4375 -4.84375 L 17.28125 -4.84375 L 17.28125 0 L 1.03125 0 L 1.03125 -22.5 L 6.4375 -22.5 Z M 6.4375 -4.84375 "/></g></g></g><g fill="#000000" fill-opacity="1"><g transform="translate(262.087337, 189.445783)"><g><path d="M 25 -22.5 L 25 0 L 19.59375 0 L 19.59375 -12.609375 L 12.921875 -8.34375 L 6.4375 -12.5625 L 6.4375 0 L 1.03125 0 L 1.03125 -22.5 L 12.984375 -14.78125 Z M 25 -22.5 "/></g></g></g><g fill="#000000" fill-opacity="1"><g transform="translate(34.220107, 207.581308)"><g><path d="M 2.484375 -5.796875 C 3.285156 -5.796875 3.976562 -5.515625 4.5625 -4.953125 C 5.125 -4.378906 5.40625 -3.691406 5.40625 -2.890625 C 5.40625 -2.085938 5.125 -1.394531 4.5625 -0.8125 C 3.976562 -0.25 3.285156 0.03125 2.484375 0.03125 L 0.265625 0.03125 L 0.265625 -5.796875 Z M 3.609375 -1.765625 C 3.910156 -2.078125 4.0625 -2.453125 4.0625 -2.890625 C 4.0625 -3.316406 3.910156 -3.6875 3.609375 -4 C 3.296875 -4.3125 2.921875 -4.46875 2.484375 -4.46875 L 1.671875 -4.46875 L 1.671875 -1.3125 L 2.484375 -1.3125 C 2.921875 -1.3125 3.296875 -1.460938 3.609375 -1.765625 Z M 3.609375 -1.765625 "/></g></g></g><g fill="#000000" fill-opacity="1"><g transform="translate(43.49391, 207.581308)"><g><path d="M 0.140625 -5.84375 L 1.53125 -5.84375 L 1.53125 0 L 0.140625 0 Z M 0.140625 -5.84375 "/></g></g></g><g fill="#000000" fill-opacity="1"><g transform="translate(48.75983, 207.581308)"><g><path d="M 2.65625 0.015625 C 2.257812 0.015625 1.910156 -0.0390625 1.609375 -0.15625 C 1.367188 -0.257812 1.125 -0.421875 0.875 -0.640625 C 0.582031 -0.898438 0.398438 -1.222656 0.328125 -1.609375 C 0.296875 -1.742188 0.28125 -1.875 0.28125 -2 C 0.269531 -2.039062 0.269531 -2.082031 0.28125 -2.125 L 0.28125 -2.1875 L 1.515625 -2.171875 C 1.515625 -1.953125 1.5625 -1.769531 1.65625 -1.625 C 1.832031 -1.351562 2.164062 -1.21875 2.65625 -1.21875 C 3.425781 -1.21875 3.8125 -1.398438 3.8125 -1.765625 C 3.8125 -2.117188 3.410156 -2.34375 2.609375 -2.4375 C 2.148438 -2.488281 1.753906 -2.582031 1.421875 -2.71875 C 1.117188 -2.84375 0.875 -3.007812 0.6875 -3.21875 C 0.414062 -3.519531 0.28125 -3.867188 0.28125 -4.265625 C 0.28125 -4.515625 0.320312 -4.742188 0.40625 -4.953125 C 0.476562 -5.117188 0.570312 -5.269531 0.6875 -5.40625 C 1.101562 -5.875 1.765625 -6.109375 2.671875 -6.109375 C 3.222656 -6.109375 3.6875 -6 4.0625 -5.78125 C 4.34375 -5.625 4.578125 -5.410156 4.765625 -5.140625 C 4.890625 -4.929688 4.984375 -4.695312 5.046875 -4.4375 C 5.054688 -4.34375 5.066406 -4.253906 5.078125 -4.171875 C 5.078125 -4.140625 5.078125 -4.109375 5.078125 -4.078125 L 5.078125 -4.03125 L 3.859375 -4.03125 L 3.859375 -4.015625 C 3.859375 -4.191406 3.8125 -4.34375 3.71875 -4.46875 C 3.53125 -4.738281 3.179688 -4.875 2.671875 -4.875 C 2.367188 -4.875 2.117188 -4.835938 1.921875 -4.765625 C 1.671875 -4.671875 1.546875 -4.53125 1.546875 -4.34375 C 1.546875 -3.976562 1.945312 -3.75 2.75 -3.65625 C 3.644531 -3.550781 4.289062 -3.273438 4.6875 -2.828125 C 4.945312 -2.515625 5.078125 -2.160156 5.078125 -1.765625 L 5.078125 -1.6875 C 5.078125 -1.65625 5.078125 -1.617188 5.078125 -1.578125 C 5.066406 -1.484375 5.054688 -1.394531 5.046875 -1.3125 C 4.984375 -1.070312 4.867188 -0.859375 4.703125 -0.671875 C 4.503906 -0.453125 4.238281 -0.28125 3.90625 -0.15625 C 3.5625 -0.0390625 3.144531 0.015625 2.65625 0.015625 Z M 2.65625 0.015625 "/></g></g></g><g fill="#000000" fill-opacity="1"><g transform="translate(57.710126, 207.581308)"><g><path d="M 3.140625 -5.8125 C 3.972656 -5.8125 4.6875 -5.519531 5.28125 -4.9375 C 5.863281 -4.34375 6.15625 -3.628906 6.15625 -2.796875 C 6.15625 -1.960938 5.863281 -1.253906 5.28125 -0.671875 C 4.6875 -0.0859375 3.972656 0.203125 3.140625 0.203125 C 2.304688 0.203125 1.597656 -0.0859375 1.015625 -0.671875 C 0.429688 -1.253906 0.140625 -1.960938 0.140625 -2.796875 C 0.140625 -3.628906 0.429688 -4.34375 1.015625 -4.9375 C 1.597656 -5.519531 2.304688 -5.8125 3.140625 -5.8125 Z M 4.390625 -1.5625 C 4.722656 -1.90625 4.890625 -2.316406 4.890625 -2.796875 C 4.890625 -3.285156 4.722656 -3.703125 4.390625 -4.046875 C 4.046875 -4.390625 3.628906 -4.5625 3.140625 -4.5625 C 2.660156 -4.5625 2.25 -4.390625 1.90625 -4.046875 C 1.5625 -3.703125 1.390625 -3.285156 1.390625 -2.796875 C 1.390625 -2.316406 1.5625 -1.90625 1.90625 -1.5625 C 2.257812 -1.21875 2.671875 -1.046875 3.140625 -1.046875 C 3.617188 -1.046875 4.035156 -1.21875 4.390625 -1.5625 Z M 4.390625 -1.5625 "/></g></g></g><g fill="#000000" fill-opacity="1"><g transform="translate(67.594986, 207.581308)"><g><path d="M 5.21875 -0.734375 C 4.644531 -0.265625 3.992188 -0.03125 3.265625 -0.03125 C 2.441406 -0.03125 1.738281 -0.320312 1.15625 -0.90625 C 0.5625 -1.488281 0.265625 -2.195312 0.265625 -3.03125 C 0.265625 -3.863281 0.5625 -4.570312 1.15625 -5.15625 C 1.738281 -5.738281 2.441406 -6.03125 3.265625 -6.03125 C 4.003906 -6.03125 4.65625 -5.789062 5.21875 -5.3125 L 4.328125 -4.421875 C 4.015625 -4.660156 3.660156 -4.78125 3.265625 -4.78125 C 2.785156 -4.78125 2.378906 -4.609375 2.046875 -4.265625 C 1.703125 -3.921875 1.53125 -3.507812 1.53125 -3.03125 C 1.53125 -2.550781 1.703125 -2.140625 2.046875 -1.796875 C 2.378906 -1.453125 2.785156 -1.28125 3.265625 -1.28125 C 3.660156 -1.28125 4.015625 -1.398438 4.328125 -1.640625 Z M 5.21875 -0.734375 "/></g></g></g><g fill="#000000" fill-opacity="1"><g transform="translate(76.949654, 207.581308)"><g><path d="M 3.40625 0 L 3.40625 -0.015625 L 0.265625 -5.84375 L 1.890625 -5.84375 L 3.40625 -2.921875 L 4.9375 -5.84375 L 6.546875 -5.84375 L 3.40625 -0.015625 Z M 3.40625 0 "/></g></g></g><g fill="#000000" fill-opacity="1"><g transform="translate(87.364708, 207.581308)"><g><path d="M 1.671875 -2.296875 L 1.671875 -1.25 L 4.34375 -1.25 L 4.34375 0 L 0.265625 0 L 0.265625 -5.84375 L 4.34375 -5.84375 L 4.34375 -4.578125 L 1.671875 -4.578125 L 1.671875 -3.546875 L 3.9375 -3.546875 L 3.9375 -2.296875 Z M 1.671875 -2.296875 "/></g></g></g><g fill="#000000" fill-opacity="1"><g transform="translate(95.578131, 207.581308)"><g><path d="M 5.140625 -3.84375 C 5.140625 -3.46875 5.046875 -3.117188 4.859375 -2.796875 C 4.628906 -2.410156 4.300781 -2.144531 3.875 -2 L 5.125 0 L 3.5625 0 L 2.328125 -1.859375 L 1.671875 -1.859375 L 1.671875 0 L 0.265625 0 L 0.265625 -5.84375 L 3.0625 -5.84375 C 3.726562 -5.84375 4.253906 -5.625 4.640625 -5.1875 C 4.972656 -4.800781 5.140625 -4.351562 5.140625 -3.84375 Z M 1.671875 -4.578125 L 1.671875 -3.125 L 3.046875 -3.125 C 3.242188 -3.125 3.398438 -3.148438 3.515625 -3.203125 C 3.609375 -3.253906 3.675781 -3.300781 3.71875 -3.34375 C 3.78125 -3.414062 3.828125 -3.503906 3.859375 -3.609375 C 3.878906 -3.691406 3.890625 -3.769531 3.890625 -3.84375 C 3.890625 -3.925781 3.878906 -4.007812 3.859375 -4.09375 C 3.816406 -4.1875 3.765625 -4.269531 3.703125 -4.34375 C 3.566406 -4.5 3.351562 -4.578125 3.0625 -4.578125 Z M 1.671875 -4.578125 "/></g></g></g><g fill="#000000" fill-opacity="1"><g transform="translate(104.591331, 207.581308)"><g/></g></g><g fill="#000000" fill-opacity="1"><g transform="translate(110.522244, 207.581308)"><g><path d="M 4.703125 -4.4375 L 3.1875 -4.4375 L 3.1875 0 L 1.78125 0 L 1.78125 -4.4375 L 0.265625 -4.4375 L 0.265625 -5.84375 L 4.703125 -5.84375 Z M 4.703125 -4.4375 "/></g></g></g><g fill="#000000" fill-opacity="1"><g transform="translate(119.014234, 207.581308)"><g><path d="M 3.4375 -5.84375 L 4.828125 -5.84375 L 4.828125 0 L 3.4375 0 L 3.4375 -2.296875 L 1.671875 -2.296875 L 1.671875 0 L 0.265625 0 L 0.265625 -5.84375 L 1.671875 -5.84375 L 1.671875 -3.546875 L 3.4375 -3.546875 Z M 3.4375 -5.84375 "/></g></g></g><g fill="#000000" fill-opacity="1"><g transform="translate(127.712918, 207.581308)"><g><path d="M 1.671875 -2.296875 L 1.671875 -1.25 L 4.34375 -1.25 L 4.34375 0 L 0.265625 0 L 0.265625 -5.84375 L 4.34375 -5.84375 L 4.34375 -4.578125 L 1.671875 -4.578125 L 1.671875 -3.546875 L 3.9375 -3.546875 L 3.9375 -2.296875 Z M 1.671875 -2.296875 "/></g></g></g><g fill="#000000" fill-opacity="1"><g transform="translate(135.926341, 207.581308)"><g/></g></g><g fill="#000000" fill-opacity="1"><g transform="translate(141.857254, 207.581308)"><g><path d="M 5.140625 -3.84375 C 5.140625 -3.46875 5.046875 -3.117188 4.859375 -2.796875 C 4.628906 -2.410156 4.300781 -2.144531 3.875 -2 L 5.125 0 L 3.5625 0 L 2.328125 -1.859375 L 1.671875 -1.859375 L 1.671875 0 L 0.265625 0 L 0.265625 -5.84375 L 3.0625 -5.84375 C 3.726562 -5.84375 4.253906 -5.625 4.640625 -5.1875 C 4.972656 -4.800781 5.140625 -4.351562 5.140625 -3.84375 Z M 1.671875 -4.578125 L 1.671875 -3.125 L 3.046875 -3.125 C 3.242188 -3.125 3.398438 -3.148438 3.515625 -3.203125 C 3.609375 -3.253906 3.675781 -3.300781 3.71875 -3.34375 C 3.78125 -3.414062 3.828125 -3.503906 3.859375 -3.609375 C 3.878906 -3.691406 3.890625 -3.769531 3.890625 -3.84375 C 3.890625 -3.925781 3.878906 -4.007812 3.859375 -4.09375 C 3.816406 -4.1875 3.765625 -4.269531 3.703125 -4.34375 C 3.566406 -4.5 3.351562 -4.578125 3.0625 -4.578125 Z M 1.671875 -4.578125 "/></g></g></g><g fill="#000000" fill-opacity="1"><g transform="translate(150.870454, 207.581308)"><g><path d="M 1.671875 -2.296875 L 1.671875 -1.25 L 4.34375 -1.25 L 4.34375 0 L 0.265625 0 L 0.265625 -5.84375 L 4.34375 -5.84375 L 4.34375 -4.578125 L 1.671875 -4.578125 L 1.671875 -3.546875 L 3.9375 -3.546875 L 3.9375 -2.296875 Z M 1.671875 -2.296875 "/></g></g></g><g fill="#000000" fill-opacity="1"><g transform="translate(159.083876, 207.581308)"><g><path d="M 4.75 0 L 4.328125 -0.8125 L 2.125 -0.8125 L 1.703125 0 L 0.09375 0 L 3.234375 -5.84375 L 6.375 0 Z M 3.765625 -1.90625 L 3.234375 -2.9375 L 2.6875 -1.90625 Z M 3.765625 -1.90625 "/></g></g></g><g fill="#000000" fill-opacity="1"><g transform="translate(169.139486, 207.581308)"><g><path d="M 1.671875 -1.25 L 4.484375 -1.25 L 4.484375 0 L 0.265625 0 L 0.265625 -5.84375 L 1.671875 -5.84375 Z M 1.671875 -1.25 "/></g></g></g><g fill="#000000" fill-opacity="1"><g transform="translate(177.325953, 207.581308)"><g><path d="M 6.484375 -5.84375 L 6.484375 0 L 5.078125 0 L 5.078125 -3.265625 L 3.34375 -2.171875 L 1.671875 -3.265625 L 1.671875 0 L 0.265625 0 L 0.265625 -5.84375 L 3.375 -3.84375 Z M 6.484375 -5.84375 "/></g></g></g><g fill="#000000" fill-opacity="1"><g transform="translate(187.678104, 207.581308)"><g><path d="M 2.65625 0.015625 C 2.257812 0.015625 1.910156 -0.0390625 1.609375 -0.15625 C 1.367188 -0.257812 1.125 -0.421875 0.875 -0.640625 C 0.582031 -0.898438 0.398438 -1.222656 0.328125 -1.609375 C 0.296875 -1.742188 0.28125 -1.875 0.28125 -2 C 0.269531 -2.039062 0.269531 -2.082031 0.28125 -2.125 L 0.28125 -2.1875 L 1.515625 -2.171875 C 1.515625 -1.953125 1.5625 -1.769531 1.65625 -1.625 C 1.832031 -1.351562 2.164062 -1.21875 2.65625 -1.21875 C 3.425781 -1.21875 3.8125 -1.398438 3.8125 -1.765625 C 3.8125 -2.117188 3.410156 -2.34375 2.609375 -2.4375 C 2.148438 -2.488281 1.753906 -2.582031 1.421875 -2.71875 C 1.117188 -2.84375 0.875 -3.007812 0.6875 -3.21875 C 0.414062 -3.519531 0.28125 -3.867188 0.28125 -4.265625 C 0.28125 -4.515625 0.320312 -4.742188 0.40625 -4.953125 C 0.476562 -5.117188 0.570312 -5.269531 0.6875 -5.40625 C 1.101562 -5.875 1.765625 -6.109375 2.671875 -6.109375 C 3.222656 -6.109375 3.6875 -6 4.0625 -5.78125 C 4.34375 -5.625 4.578125 -5.410156 4.765625 -5.140625 C 4.890625 -4.929688 4.984375 -4.695312 5.046875 -4.4375 C 5.054688 -4.34375 5.066406 -4.253906 5.078125 -4.171875 C 5.078125 -4.140625 5.078125 -4.109375 5.078125 -4.078125 L 5.078125 -4.03125 L 3.859375 -4.03125 L 3.859375 -4.015625 C 3.859375 -4.191406 3.8125 -4.34375 3.71875 -4.46875 C 3.53125 -4.738281 3.179688 -4.875 2.671875 -4.875 C 2.367188 -4.875 2.117188 -4.835938 1.921875 -4.765625 C 1.671875 -4.671875 1.546875 -4.53125 1.546875 -4.34375 C 1.546875 -3.976562 1.945312 -3.75 2.75 -3.65625 C 3.644531 -3.550781 4.289062 -3.273438 4.6875 -2.828125 C 4.945312 -2.515625 5.078125 -2.160156 5.078125 -1.765625 L 5.078125 -1.6875 C 5.078125 -1.65625 5.078125 -1.617188 5.078125 -1.578125 C 5.066406 -1.484375 5.054688 -1.394531 5.046875 -1.3125 C 4.984375 -1.070312 4.867188 -0.859375 4.703125 -0.671875 C 4.503906 -0.453125 4.238281 -0.28125 3.90625 -0.15625 C 3.5625 -0.0390625 3.144531 0.015625 2.65625 0.015625 Z M 2.65625 0.015625 "/></g></g></g><g fill="#000000" fill-opacity="1"><g transform="translate(196.628401, 207.581308)"><g/></g></g><g fill="#000000" fill-opacity="1"><g transform="translate(202.559314, 207.581308)"><g><path d="M 3.140625 -5.8125 C 3.972656 -5.8125 4.6875 -5.519531 5.28125 -4.9375 C 5.863281 -4.34375 6.15625 -3.628906 6.15625 -2.796875 C 6.15625 -1.960938 5.863281 -1.253906 5.28125 -0.671875 C 4.6875 -0.0859375 3.972656 0.203125 3.140625 0.203125 C 2.304688 0.203125 1.597656 -0.0859375 1.015625 -0.671875 C 0.429688 -1.253906 0.140625 -1.960938 0.140625 -2.796875 C 0.140625 -3.628906 0.429688 -4.34375 1.015625 -4.9375 C 1.597656 -5.519531 2.304688 -5.8125 3.140625 -5.8125 Z M 4.390625 -1.5625 C 4.722656 -1.90625 4.890625 -2.316406 4.890625 -2.796875 C 4.890625 -3.285156 4.722656 -3.703125 4.390625 -4.046875 C 4.046875 -4.390625 3.628906 -4.5625 3.140625 -4.5625 C 2.660156 -4.5625 2.25 -4.390625 1.90625 -4.046875 C 1.5625 -3.703125 1.390625 -3.285156 1.390625 -2.796875 C 1.390625 -2.316406 1.5625 -1.90625 1.90625 -1.5625 C 2.257812 -1.21875 2.671875 -1.046875 3.140625 -1.046875 C 3.617188 -1.046875 4.035156 -1.21875 4.390625 -1.5625 Z M 4.390625 -1.5625 "/></g></g></g><g fill="#000000" fill-opacity="1"><g transform="translate(212.444177, 207.581308)"><g><path d="M 3.875 -4.578125 L 1.671875 -4.578125 L 1.671875 -3.546875 L 3.3125 -3.546875 L 3.3125 -2.296875 L 1.671875 -2.296875 L 1.671875 0 L 0.265625 0 L 0.265625 -5.84375 L 3.875 -5.84375 Z M 3.875 -4.578125 "/></g></g></g><g fill="#000000" fill-opacity="1"><g transform="translate(220.19031, 207.581308)"><g/></g></g><g fill="#000000" fill-opacity="1"><g transform="translate(226.121223, 207.581308)"><g><path d="M 5.21875 -0.734375 C 4.644531 -0.265625 3.992188 -0.03125 3.265625 -0.03125 C 2.441406 -0.03125 1.738281 -0.320312 1.15625 -0.90625 C 0.5625 -1.488281 0.265625 -2.195312 0.265625 -3.03125 C 0.265625 -3.863281 0.5625 -4.570312 1.15625 -5.15625 C 1.738281 -5.738281 2.441406 -6.03125 3.265625 -6.03125 C 4.003906 -6.03125 4.65625 -5.789062 5.21875 -5.3125 L 4.328125 -4.421875 C 4.015625 -4.660156 3.660156 -4.78125 3.265625 -4.78125 C 2.785156 -4.78125 2.378906 -4.609375 2.046875 -4.265625 C 1.703125 -3.921875 1.53125 -3.507812 1.53125 -3.03125 C 1.53125 -2.550781 1.703125 -2.140625 2.046875 -1.796875 C 2.378906 -1.453125 2.785156 -1.28125 3.265625 -1.28125 C 3.660156 -1.28125 4.015625 -1.398438 4.328125 -1.640625 Z M 5.21875 -0.734375 "/></g></g></g><g fill="#000000" fill-opacity="1"><g transform="translate(235.475883, 207.581308)"><g><path d="M 3.140625 -5.8125 C 3.972656 -5.8125 4.6875 -5.519531 5.28125 -4.9375 C 5.863281 -4.34375 6.15625 -3.628906 6.15625 -2.796875 C 6.15625 -1.960938 5.863281 -1.253906 5.28125 -0.671875 C 4.6875 -0.0859375 3.972656 0.203125 3.140625 0.203125 C 2.304688 0.203125 1.597656 -0.0859375 1.015625 -0.671875 C 0.429688 -1.253906 0.140625 -1.960938 0.140625 -2.796875 C 0.140625 -3.628906 0.429688 -4.34375 1.015625 -4.9375 C 1.597656 -5.519531 2.304688 -5.8125 3.140625 -5.8125 Z M 4.390625 -1.5625 C 4.722656 -1.90625 4.890625 -2.316406 4.890625 -2.796875 C 4.890625 -3.285156 4.722656 -3.703125 4.390625 -4.046875 C 4.046875 -4.390625 3.628906 -4.5625 3.140625 -4.5625 C 2.660156 -4.5625 2.25 -4.390625 1.90625 -4.046875 C 1.5625 -3.703125 1.390625 -3.285156 1.390625 -2.796875 C 1.390625 -2.316406 1.5625 -1.90625 1.90625 -1.5625 C 2.257812 -1.21875 2.671875 -1.046875 3.140625 -1.046875 C 3.617188 -1.046875 4.035156 -1.21875 4.390625 -1.5625 Z M 4.390625 -1.5625 "/></g></g></g><g fill="#000000" fill-opacity="1"><g transform="translate(245.360734, 207.581308)"><g><path d="M 3.875 -4.578125 L 1.671875 -4.578125 L 1.671875 -3.546875 L 3.3125 -3.546875 L 3.3125 -2.296875 L 1.671875 -2.296875 L 1.671875 0 L 0.265625 0 L 0.265625 -5.84375 L 3.875 -5.84375 Z M 3.875 -4.578125 "/></g></g></g><g fill="#000000" fill-opacity="1"><g transform="translate(253.106856, 207.581308)"><g><path d="M 3.875 -4.578125 L 1.671875 -4.578125 L 1.671875 -3.546875 L 3.3125 -3.546875 L 3.3125 -2.296875 L 1.671875 -2.296875 L 1.671875 0 L 0.265625 0 L 0.265625 -5.84375 L 3.875 -5.84375 Z M 3.875 -4.578125 "/></g></g></g><g fill="#000000" fill-opacity="1"><g transform="translate(260.852979, 207.581308)"><g><path d="M 1.671875 -2.296875 L 1.671875 -1.25 L 4.34375 -1.25 L 4.34375 0 L 0.265625 0 L 0.265625 -5.84375 L 4.34375 -5.84375 L 4.34375 -4.578125 L 1.671875 -4.578125 L 1.671875 -3.546875 L 3.9375 -3.546875 L 3.9375 -2.296875 Z M 1.671875 -2.296875 "/></g></g></g><g fill="#000000" fill-opacity="1"><g transform="translate(269.066401, 207.581308)"><g><path d="M 1.671875 -2.296875 L 1.671875 -1.25 L 4.34375 -1.25 L 4.34375 0 L 0.265625 0 L 0.265625 -5.84375 L 4.34375 -5.84375 L 4.34375 -4.578125 L 1.671875 -4.578125 L 1.671875 -3.546875 L 3.9375 -3.546875 L 3.9375 -2.296875 Z M 1.671875 -2.296875 "/></g></g></g></svg>